<?xml version="1.0" encoding="UTF-8" standalone="no"?><!DOCTYPE svg PUBLIC "-//W3C//DTD SVG 1.1//EN" "http://www.w3.org/Graphics/SVG/1.1/DTD/svg11.dtd"><svg width="100%" height="100%" viewBox="0 0 300 300" version="1.1" xmlns="http://www.w3.org/2000/svg" xmlns:xlink="http://www.w3.org/1999/xlink" xml:space="preserve" xmlns:serif="http://www.serif.com/" style="fill-rule:evenodd;clip-rule:evenodd;stroke-linejoin:round;stroke-miterlimit:2;"><ellipse cx="235.788" cy="162.385" rx="7.499" ry="7.952" style="fill:#48c1e7;"/><ellipse cx="235.776" cy="222.675" rx="7.499" ry="7.952" style="fill:#fecb66;"/><rect x="233.24" y="166.586" width="5.181" height="54.741" style="fill:url(#_Linear1);"/><ellipse cx="190.272" cy="149.488" rx="7.499" ry="7.952" style="fill:#48c1e7;"/><ellipse cx="190.26" cy="209.777" rx="7.499" ry="7.952" style="fill:#fecb66;"/><rect x="187.724" y="153.689" width="5.181" height="54.741" style="fill:url(#_Linear2);"/><path d="M190.182,209.127l45.756,13.338c-20.929,23.51 -43.956,40.976 -69.079,52.397c-25.123,11.422 -52.222,17.141 -81.296,17.158c-35.973,0.022 -60.221,-9.73 -72.743,-29.256c-12.521,-19.525 -9.557,-46.232 8.895,-80.119c19.518,-35.846 46.318,-63.693 80.401,-83.54c34.083,-19.847 70.097,-29.781 108.041,-29.804c33.14,-0.019 55.818,7.751 68.036,23.311c7.307,9.199 9.347,22.416 6.121,39.65l-59.744,10.316c2.877,-11.164 0.993,-19.974 -5.651,-26.433c-6.644,-6.458 -17.235,-9.682 -31.772,-9.674c-20.081,0.012 -39.493,5.751 -58.237,17.218c-18.744,11.466 -35.101,30.03 -49.073,55.69c-14.825,27.228 -19.225,46.616 -13.198,58.166c6.027,11.55 18.896,17.319 38.607,17.307c14.538,-0.008 29.042,-3.689 43.513,-11.04c14.471,-7.352 28.279,-18.914 41.423,-34.685Z" style="fill:url(#_Linear3);fill-rule:nonzero;"/><ellipse cx="284.077" cy="132.311" rx="7.499" ry="7.952" style="fill:#f04b6f;"/><ellipse cx="224.831" cy="142.129" rx="7.499" ry="7.952" style="fill:#f04b6f;"/><path d="M190.182,148.58l45.756,13.338c-20.929,23.51 -43.956,40.976 -69.079,52.397c-25.123,11.422 -52.222,17.141 -81.296,17.158c-35.973,0.022 -60.221,-9.73 -72.743,-29.256c-12.521,-19.525 -9.557,-46.232 8.895,-80.119c19.518,-35.846 46.318,-63.693 80.401,-83.54c34.083,-19.847 70.097,-29.781 108.041,-29.804c33.14,-0.019 55.818,7.751 68.036,23.311c7.307,9.199 9.347,22.416 6.121,39.65l-59.744,10.316c2.877,-11.164 0.993,-19.974 -5.651,-26.433c-6.644,-6.458 -17.235,-9.682 -31.772,-9.674c-20.081,0.012 -39.493,5.751 -58.237,17.218c-18.744,11.466 -35.101,30.03 -49.073,55.69c-14.825,27.228 -19.225,46.616 -13.198,58.166c6.027,11.55 18.896,17.319 38.607,17.307c14.538,-0.008 29.042,-3.689 43.513,-11.04c14.471,-7.352 28.279,-18.914 41.423,-34.685Z" style="fill:url(#_Linear4);fill-rule:nonzero;"/><rect x="222.296" y="86.041" width="5.181" height="54.741" style="fill:url(#_Linear5);"/><rect x="281.692" y="74.465" width="5.181" height="54.741" style="fill:url(#_Linear6);"/><ellipse cx="224.844" cy="81.84" rx="7.499" ry="7.952" style="fill:#073b4c;"/><ellipse cx="284.432" cy="71.764" rx="7.499" ry="7.952" style="fill:#073b4c;"/><defs><linearGradient id="_Linear1" x1="0" y1="0" x2="1" y2="0" gradientUnits="userSpaceOnUse" gradientTransform="matrix(2.33403e-15,40.4178,-38.1176,2.47488e-15,238.421,172.962)"><stop offset="0" style="stop-color:#48c1e7;stop-opacity:1"/><stop offset="1" style="stop-color:#fecb66;stop-opacity:1"/></linearGradient><linearGradient id="_Linear2" x1="0" y1="0" x2="1" y2="0" gradientUnits="userSpaceOnUse" gradientTransform="matrix(2.33403e-15,40.4178,-38.1176,2.47488e-15,192.905,160.065)"><stop offset="0" style="stop-color:#48c1e7;stop-opacity:1"/><stop offset="1" style="stop-color:#fecb66;stop-opacity:1"/></linearGradient><linearGradient id="_Linear3" x1="0" y1="0" x2="1" y2="0" gradientUnits="userSpaceOnUse" gradientTransform="matrix(0.262119,232.482,-143.985,0.16234,126.848,63.4359)"><stop offset="0" style="stop-color:#ffd166;stop-opacity:1"/><stop offset="1" style="stop-color:#ef476f;stop-opacity:1"/></linearGradient><linearGradient id="_Linear4" x1="0" y1="0" x2="1" y2="0" gradientUnits="userSpaceOnUse" gradientTransform="matrix(2.84217e-14,-228.283,228.283,1.39888e-14,111.711,236.405)"><stop offset="0" style="stop-color:#073b4c;stop-opacity:1"/><stop offset="1" style="stop-color:#4cc9f0;stop-opacity:1"/></linearGradient><linearGradient id="_Linear5" x1="0" y1="0" x2="1" y2="0" gradientUnits="userSpaceOnUse" gradientTransform="matrix(2.33403e-15,40.4178,-38.1176,2.47488e-15,227.477,92.4173)"><stop offset="0" style="stop-color:#073b4c;stop-opacity:1"/><stop offset="1" style="stop-color:#f04b6f;stop-opacity:1"/></linearGradient><linearGradient id="_Linear6" x1="0" y1="0" x2="1" y2="0" gradientUnits="userSpaceOnUse" gradientTransform="matrix(2.33403e-15,40.4178,-38.1176,2.47488e-15,286.874,80.8413)"><stop offset="0" style="stop-color:#073b4c;stop-opacity:1"/><stop offset="1" style="stop-color:#f04b6f;stop-opacity:1"/></linearGradient></defs></svg>